Coordinates
version=1
nRows=12
nColumns=33
inDegrees=yes

Units are S.I. units (second, meters, Newtons, ...)
Angles are in degrees.

endheader
time	ground_thorax_rot_x	ground_thorax_rot_y	ground_thorax_rot_z	ground_thorax_tx	ground_thorax_ty	ground_thorax_tz	clav_prot_r	clav_elev_r	scapula_abduction_r	scapula_elevation_r	scapula_upward_rot_r	scapula_winging_r	shoulder_elv_r	plane_of_elev_r	axial_rot_r	elbow_flexion_r	pro_sup_r	wrist_flex_r	wrist_dev_r	clav_prot_l	clav_elev_l	scapula_abduction_l	scapula_elevation_l	scapula_upward_rot_l	scapula_winging_l	shoulder_elv_l	plane_of_elev_l	axial_rot_l	elbow_flexion_l	pro_sup_l	wrist_flex_l	wrist_dev_l
      8.86000000	    -36.52636728	     -1.27260519	      3.60357134	    -57.58501003	    809.31015075	      0.70838191	      5.17025800	    -45.00000000	     45.00000000	    -45.00000000	     -9.24589173	    -91.70134623	  -4975.65870491	     29.02991302	     76.15509366	    728.48867085	     -1.02574919	     16.16775427	     13.60985086	     17.16323653	     42.21440494	    -45.00000000	    -42.74775950	    -29.91520603	   5479.30808874	  -5693.95750372	     23.88247333	    -28.40229393	   1087.93008710	     12.56650339	     13.30940529	    -20.02375562
      8.87000000	    -36.48410889	     -1.34369771	      3.53546591	    -55.44676825	    806.09312339	      1.45125706	      5.25600562	    -45.00000000	     45.00000000	    -45.00000000	     -9.27129672	    -91.42429261	  -4975.85438191	     28.83977497	     76.18516096	    728.53550715	      1.74299546	     16.22614064	     13.38483147	     16.96636571	     41.99977762	    -45.00000000	    -42.23549961	    -29.50509232	   5479.08558251	  -5694.08664889	     23.74171694	    -28.48090262	   1087.54267770	     12.00401099	     13.33085872	    -19.70370244
      8.88000000	    -36.38546991	     -1.64453243	      3.63918611	    -53.54167636	    803.22863421	      2.24833955	      5.43095168	    -45.00000000	     45.00000000	    -45.00000000	     -9.64161734	    -91.17613074	  -4975.95621083	     28.72323213	     76.43329673	    728.46173011	      3.00310469	     16.22506554	     13.34064962	     16.75759790	     41.66627876	    -45.00000000	    -41.65636842	    -29.35412693	   5479.14481900	  -5694.37318122	     23.75092453	    -28.79713824	   1087.21420828	     11.84243446	     13.22617489	    -19.44719960
      8.89000000	    -36.34735876	     -1.79544730	      3.57585122	    -51.88320065	    800.74040789	      3.07593385	      5.51148271	    -45.00000000	     45.00000000	    -45.00000000	     -9.80564835	    -91.01558182	  -4976.08007794	     28.64345052	     76.71955608	    728.40156544	      3.56725732	     16.19581558	     13.28644402	     16.55241731	     41.35756078	    -45.00000000	    -41.18003808	    -29.08408231	   5479.11880774	  -5694.59657977	     23.77499255	    -28.86909926	   1086.94035359	     11.86864566	     13.22571197	    -19.26522472
      8.90000000	    -36.25475877	     -2.11694311	      3.72854120	    -50.49046630	    798.63849703	      3.90656033	      5.80929161	    -45.00000000	     45.00000000	    -45.00000000	    -10.33441424	    -91.13408464	  -4976.28249138	     28.78355327	     77.12387144	    728.28470443	      3.72237440	     16.15008354	     13.04354344	     16.01177199	     40.64019916	    -45.00000000	    -40.46435153	    -29.07788520	   5479.22095863	  -5694.48264608	     23.77570977	    -29.03879706	   1086.72505272	     12.07495255	     13.38278796	    -19.12793665
      8.91000000	    -36.30103863	     -2.10768342	      3.39458591	    -49.38510931	    796.91177228	      4.71334850	      5.67480470	    -45.00000000	     45.00000000	    -45.00000000	    -10.16138089	    -90.89357501	  -4976.37126019	     28.61329241	     77.34622742	    728.26339226	      3.75459824	     16.09673036	     13.10078559	     16.07734612	     40.51279823	    -45.00000000	    -40.12228560	    -28.49937535	   5479.12397169	  -5694.62710331	     23.72310303	    -28.70060706	   1086.40588908	     12.34520511	     13.37105714	    -19.01918747
      8.92000000	    -36.33752909	     -2.18351426	      3.14123236	    -48.58272530	    795.52836920	      5.47113995	      5.60136653	    -45.00000000	     45.00000000	    -45.00000000	    -10.15726315	    -90.72824133	  -4976.47695853	     28.53862095	     77.57239257	    728.18658047	      3.75223232	     16.03229985	     13.11584414	     16.00585220	     40.17772625	    -45.00000000	    -39.74794986	    -28.10378946	   5479.11780489	  -5694.67465454	     23.69255403	    -28.34183725	   1086.16001045	     12.72693234	     13.41027066	    -18.96106120
      8.93000000	    -36.36833797	     -2.31487507	      2.95445009	    -48.09327427	    794.44112334	      6.16135949	      5.56356564	    -45.00000000	     45.00000000	    -45.00000000	    -10.28845020	    -90.57659934	  -4976.47132739	     28.47509921	     77.76444137	    728.13046050	      3.78214462	     15.98271282	     13.18633822	     15.99490517	     39.89463815	    -45.00000000	    -39.47363343	    -27.82164645	   5479.13902813	  -5694.82349160	     23.70940386	    -27.90845875	   1085.93856011	     13.16030895	     13.37844467	    -18.92823110
      8.94000000	    -36.32552908	     -2.57800953	      2.93717122	    -47.91690444	    793.59802378	      6.76776042	      5.50086504	    -45.00000000	     45.00000000	    -45.00000000	    -10.23971282	    -90.61095084	  -4976.43778473	     28.35077661	     77.75530518	    728.24158156	      3.83840251	     16.01160321	     13.24254334	     15.95604927	     39.88369581	    -45.00000000	    -39.04661444	    -27.58602922	   5479.36469070	  -5694.91688236	     23.60286101	    -27.31205942	   1085.90761122	     13.50747491	     13.12756338	    -18.95259720
      8.95000000	    -36.50835189	     -2.54156219	      2.62338710	    -48.03947594	    792.93714673	      7.28786699	      5.52288266	    -45.00000000	     45.00000000	    -45.00000000	    -10.21280394	    -90.62024195	  -4976.73598268	     28.37875399	     77.79928360	    728.01454939	      4.00263225	     15.94247582	     13.13221029	     15.89383818	     39.91492724	    -45.00000000	    -39.08966451	    -27.62277600	   5479.31889394	  -5694.85570780	     23.79225194	    -27.11197328	   1085.76116465	     13.96940652	     13.32979866	    -18.98694492
      8.96000000	    -36.54812073	     -2.71200537	      2.53946529	    -48.44020909	    792.40806430	      7.72215116	      5.45015548	    -45.00000000	     45.00000000	    -45.00000000	    -10.35528389	    -90.52898787	  -4976.62753532	     28.24776898	     77.85295462	    728.11197536	      4.27067232	     15.98195505	     13.28425498	     15.92473073	     39.92622697	    -45.00000000	    -38.95148038	    -27.50523389	   5479.39271269	  -5695.02214688	     23.71406354	    -26.57831171	   1085.63364005	     14.32889236	     13.04267948	    -19.01379113
      8.97000000	    -36.67379196	     -2.69607496	      2.35895618	    -49.09219483	    791.97109514	      8.07676448	      5.52745057	    -45.00000000	     45.00000000	    -45.00000000	    -10.32711367	    -90.77410614	  -4976.84724179	     28.32577926	     77.80625834	    727.98598878	      4.61076699	     15.96953399	     13.08910788	     15.89477626	     39.98156887	    -45.00000000	    -39.00446556	    -27.76946643	   5479.37013350	  -5694.91790088	     23.90191112	    -26.45404998	   1085.58270987	     14.71889177	     13.32702656	    -19.09555641
